<svg xmlns="http://www.w3.org/2000/svg" xmlns:xlink="http://www.w3.org/1999/xlink" version="1.1" id="Layer_1" x="0px" y="0px" width="100px" height="100px" viewBox="185.5 -185.5 100 100" enable-background="new 185.5 -185.5 100 100" xml:space="preserve">
<g id="Layer_1_1_" display="none">
	<g display="inline">
		<path d="M20.916,56.396c-9.111,1.689-16.014,9.666-16.014,19.266c0,9.602,6.903,17.574,16.014,19.264V56.396z"/>
		<path d="M28.105,56.396v38.527c9.11-1.688,16.013-9.66,16.013-19.264C44.118,66.062,37.215,58.088,28.105,56.396z"/>
	</g>
	<g display="inline">
		<path d="M39.312,51.303l11.99-11.991c0.175-0.307,0.144-0.697-0.116-0.958l-3.135-3.135c-0.312-0.312-0.82-0.312-1.134,0.001    c-0.922,0.922-2.423,0.921-3.345,0c-0.923-0.923-0.922-2.423,0.001-3.345c0.312-0.315,0.312-0.822-0.001-1.135L16.361,3.527    C12.825-0.009,7.283,0.206,3.745,3.744s-3.753,9.08-0.217,12.616l27.213,27.211c0.313,0.314,0.822,0.312,1.135,0    c0.922-0.922,2.421-0.923,3.345,0c0.921,0.922,0.922,2.423,0,3.346c-0.314,0.313-0.315,0.822-0.002,1.134l3.134,3.137    C38.615,51.445,39.005,51.477,39.312,51.303z"/>
		<polygon points="48.092,44.373 44.373,48.092 81.838,85.559 84.252,90.516 95.299,99.02 99.02,95.3 90.516,84.252 85.559,81.84       "/>
	</g>
</g>
<g>
	<path fill="#000000" d="M235.75-89.25c-25.641,0-46.5-20.86-46.5-46.5s20.859-46.5,46.5-46.5s46.5,20.86,46.5,46.5   S261.391-89.25,235.75-89.25z M235.75-171.231c-19.564,0-35.481,15.917-35.481,35.481s15.917,35.481,35.481,35.481   s35.481-15.917,35.481-35.481S255.314-171.231,235.75-171.231z"/>
</g>
<g>
	<rect x="230.24" y="-156.466" fill="#000000" width="11.02" height="41.432"/>
</g>
</svg>