<?xml version="1.0" encoding="UTF-8" standalone="no"?>
<svg width="55px" height="52px" viewBox="0 0 55 52" version="1.1" xmlns="http://www.w3.org/2000/svg" xmlns:xlink="http://www.w3.org/1999/xlink" xmlns:sketch="http://www.bohemiancoding.com/sketch/ns">
    <title>string-logo-gray</title>
    <description>Created with Sketch (http://www.bohemiancoding.com/sketch)</description>
    <defs></defs>
    <g id="Page-1" stroke="none" stroke-width="1" fill="none" fill-rule="evenodd" sketch:type="MSPage">
        <g id="String-gray" sketch:type="MSLayerGroup" transform="translate(1.000000, 1.000000)" stroke="#AFB6BB" stroke-width="1.81818182">
            <path d="M4.11206897,20 L48.0597224,20" id="Line" stroke-linecap="square" sketch:type="MSShapeGroup"></path>
            <path d="M4.11206897,20.4545455 L39.75,45.9090909" id="Line" stroke-linecap="square" sketch:type="MSShapeGroup"></path>
            <path d="M13.25,45 L48.0597224,20.4545455" id="Line" stroke-linecap="square" sketch:type="MSShapeGroup"></path>
            <path d="M26.0431034,5 L39.75,45.9090909" id="Line" stroke-linecap="square" sketch:type="MSShapeGroup"></path>
            <path d="M26.0431034,5 L13.25,45.9090909" id="Line" stroke-linecap="square" sketch:type="MSShapeGroup"></path>
            <polygon id="Polygon-7" sketch:type="MSShapeGroup" points="26.5 4.54545455 48.2267221 20.2496138 39.9278527 45.6594771 13.0721473 45.6594771 4.77327786 20.2496138 "></polygon>
            <path d="M26.5,11 C29.5280441,11 31.9827586,8.53756627 31.9827586,5.5 C31.9827586,2.46243373 29.5280441,0 26.5,0 C23.4719559,0 21.0172414,2.46243373 21.0172414,5.5 C21.0172414,8.53756627 23.4719559,11 26.5,11 Z" id="Oval-5" fill="#CDD4D9" sketch:type="MSShapeGroup"></path>
            <path d="M13.7068966,50.0909091 C16.7349407,50.0909091 19.1896552,47.6284754 19.1896552,44.5909091 C19.1896552,41.5533428 16.7349407,39.0909091 13.7068966,39.0909091 C10.6788524,39.0909091 8.22413793,41.5533428 8.22413793,44.5909091 C8.22413793,47.6284754 10.6788524,50.0909091 13.7068966,50.0909091 Z" id="Oval-5" fill="#AFB6BB" sketch:type="MSShapeGroup"></path>
            <path d="M39.2931034,50.0909091 C42.3211476,50.0909091 44.7758621,47.6284754 44.7758621,44.5909091 C44.7758621,41.5533428 42.3211476,39.0909091 39.2931034,39.0909091 C36.2650593,39.0909091 33.8103448,41.5533428 33.8103448,44.5909091 C33.8103448,47.6284754 36.2650593,50.0909091 39.2931034,50.0909091 Z" id="Oval-5" fill="#AFB6BB" sketch:type="MSShapeGroup"></path>
            <path d="M47.5172414,26.4545455 C50.5452855,26.4545455 53,23.9921117 53,20.9545455 C53,17.9169792 50.5452855,15.4545455 47.5172414,15.4545455 C44.4891973,15.4545455 42.0344828,17.9169792 42.0344828,20.9545455 C42.0344828,23.9921117 44.4891973,26.4545455 47.5172414,26.4545455 Z" id="Oval-5" fill="#AFB6BB" sketch:type="MSShapeGroup"></path>
            <path d="M5.48275862,26.4545455 C8.51080274,26.4545455 10.9655172,23.9921117 10.9655172,20.9545455 C10.9655172,17.9169792 8.51080274,15.4545455 5.48275862,15.4545455 C2.4547145,15.4545455 0,17.9169792 0,20.9545455 C0,23.9921117 2.4547145,26.4545455 5.48275862,26.4545455 Z" id="Oval-5" fill="#CDD4D9" sketch:type="MSShapeGroup"></path>
        </g>
    </g>
</svg>