<svg xmlns="http://www.w3.org/2000/svg" xmlns:xlink="http://www.w3.org/1999/xlink" version="1.1" id="Layer_1" x="0px" y="0px" width="99.998px" height="100.001px" viewBox="0 0 99.998 100.001" enable-background="new 0 0 99.998 100.001" xml:space="preserve">
<path d="M46.831,21.354l10.295-10.286l1.978-8.518c0.261-1.113-0.43-2.232-1.555-2.493c-1.113-0.267-2.232,0.429-2.487,1.548  l-1.716,7.358L41.919,20.392l-1.371,9.637c-0.615,0.591-1.224,1.183-1.867,1.814l-7.883-7.23l-9.826,6.923l-7.77,0.864  c-1.143,0.134-1.963,1.154-1.838,2.296c0.052,0.487,0.275,0.916,0.6,1.241c0.429,0.429,1.044,0.667,1.696,0.597l8.303-0.922  l8.24-5.491l4.494,5.769c-1.252,1.305-2.505,2.662-3.76,4.071L19.81,41L8.561,52.625l-6.764,0.923  c-1.136,0.156-1.937,1.2-1.777,2.336c0.061,0.47,0.278,0.876,0.588,1.189c0.443,0.44,1.079,0.684,1.751,0.591l8.19-1.113  l9.434-9.805l4.778,0.806c-7.564,10.315-12.519,22.017-6.68,32.269l41.537-41.534L46.068,24.735L46.831,21.354z"/>
<path d="M67.597,86.801l0.864-7.775l6.929-9.822l-7.236-7.88c0.638-0.644,1.224-1.259,1.815-1.873l9.643-1.368l11.423-11.429  l7.364-1.711c1.113-0.261,1.809-1.38,1.542-2.493c-0.255-1.125-1.38-1.815-2.493-1.554l-8.513,1.983L78.643,53.171l-3.38,0.759  L61.717,40.385L20.929,81.171c10.124,5.77,21.475,1.206,31.502-6.013l0.821,4.859l-9.8,9.434l-1.119,8.188  c-0.093,0.672,0.151,1.311,0.595,1.751c0.31,0.313,0.716,0.527,1.188,0.592c1.134,0.156,2.18-0.639,2.34-1.78l0.919-6.762  l11.623-11.248l1.038-11.15c1.408-1.247,2.766-2.493,4.064-3.734l5.781,4.488l-5.497,8.239l-0.922,8.303  c-0.07,0.655,0.168,1.271,0.597,1.699c0.325,0.325,0.754,0.545,1.241,0.598C66.444,88.761,67.47,87.938,67.597,86.801z"/>
<path d="M48.419,22.706l13.566,13.568l7.225-19.581C62.449,15.324,54.702,17.406,48.419,22.706z"/>
<path d="M78.51,21.488c-1.844-1.85-4.048-3.148-6.413-4.024l-6.112,16.555l16.549-6.112C81.659,25.535,80.36,23.332,78.51,21.488z"/>
<path d="M83.305,30.789l-19.581,7.225l13.568,13.568C82.592,45.296,84.673,37.55,83.305,30.789z"/>
</svg>