<?xml version="1.0" encoding="UTF-8" standalone="no"?>
<svg width="50px" height="50px" viewBox="0 0 50 50" version="1.1" xmlns="http://www.w3.org/2000/svg" xmlns:xlink="http://www.w3.org/1999/xlink" xmlns:sketch="http://www.bohemiancoding.com/sketch/ns">
    <title>entrez-logo-gray</title>
    <description>Created with Sketch (http://www.bohemiancoding.com/sketch)</description>
    <defs></defs>
    <g id="Page-1" stroke="none" stroke-width="1" fill="none" fill-rule="evenodd" sketch:type="MSPage">
        <g id="Entrez-gray" sketch:type="MSLayerGroup" fill="#B0B6BB">
            <path d="M24.7417238,0.474655951 C11.2673773,0.5600973 0.344524194,11.5481369 0.344533293,25.0424562 C0.344533293,38.5897145 11.3366403,49.5818032 24.8838986,49.5818214 C38.4311478,49.5818487 49.4516897,38.5897236 49.4516988,25.0424562 C49.4516988,11.495207 38.4311478,0.47466505 24.8838986,0.474655951 C24.8309686,0.47466505 24.7945628,0.47432838 24.7417238,0.474655951 C24.7417238,0.474655951 24.7945628,0.47432838 24.7417238,0.474655951 L24.7417238,0.474655951 L24.7417238,0.474655951 Z M24.1730247,5.30859812 C24.2979747,5.30387565 24.4171559,5.31098211 24.5426791,5.30859812 C24.6696946,5.30616864 24.7563098,5.30859812 24.8838986,5.30859812 C35.7713376,5.30859812 44.6461916,14.1550353 44.6461916,25.0424562 C44.6462007,35.9299043 35.7713376,44.7763142 24.8838986,44.7763142 C13.9964777,44.7763142 5.17847547,35.9298952 5.17847547,25.0424562 C5.17846637,14.4087115 13.6357951,5.70716064 24.1730247,5.30859812 C24.1730247,5.30859812 13.6357951,5.70716064 24.1730247,5.30859812 L24.1730247,5.30859812 L24.1730247,5.30859812 Z" id="path1317" sketch:type="MSShapeGroup"></path>
            <path d="M24.9215783,27.6737859 C24.9215783,27.6737859 23.3220871,28.6203468 22.0891566,27.3339586 C20.8833963,26.0759143 21.7999208,24.3363685 21.7999208,24.3363685 C21.7999208,24.3363685 31.2155393,14.9270102 31.0987058,15.0265644 C29.2935093,13.9082472 27.1659196,13.2622597 24.8920241,13.2622597 C24.8158822,13.2622597 24.7687757,13.260822 24.6929795,13.2622597 C24.6180659,13.2636791 24.5400767,13.2594571 24.4654998,13.2622597 C24.3672377,13.2659721 24.2787845,13.2561359 24.1811503,13.2622597 C18.0299373,13.6479195 13.1199532,18.7873123 13.1199532,25.0343306 C13.1199532,31.5319041 18.3944597,36.8064015 24.8920241,36.8064015 C28.7378858,36.8064015 32.1652304,34.9585572 34.3221377,32.102969 C34.3221377,32.102969 36.144659,30.2963439 37.7791274,31.5920588 C39.4710117,32.9332696 37.8036224,35.2430614 37.8036224,35.2430614 C34.78646,39.0520532 30.1215079,41.4981689 24.8920241,41.4981689 C15.808444,41.4981507 8.42818579,34.1179199 8.42818579,25.0343306 C8.42817669,16.198312 15.4111007,8.95806295 24.1527153,8.57049226 C24.3625152,8.56119289 24.5949721,8.57183894 24.8067193,8.57049226 C24.8421515,8.57027388 24.8565282,8.57051046 24.8920241,8.57049226 C29.9667398,8.57050136 34.5098357,10.8739692 37.5314294,14.4910227 C37.6635405,14.6491757 24.9215783,27.6737859 24.9215783,27.6737859 L24.9215783,27.6737859 L24.9215783,27.6737859 L24.9215783,27.6737859 Z" id="path1334" sketch:type="MSShapeGroup"></path>
        </g>
    </g>
</svg>