<?xml version="1.0" encoding="UTF-8" standalone="no"?>
<svg width="60px" height="52px" viewBox="0 0 60 52" version="1.1" xmlns="http://www.w3.org/2000/svg" xmlns:xlink="http://www.w3.org/1999/xlink" xmlns:sketch="http://www.bohemiancoding.com/sketch/ns">
    <title>omim-logo-gray</title>
    <description>Created with Sketch (http://www.bohemiancoding.com/sketch)</description>
    <defs></defs>
    <g id="Page-1" stroke="none" stroke-width="1" fill="none" fill-rule="evenodd" sketch:type="MSPage">
        <g id="OMIM-gray" sketch:type="MSLayerGroup" transform="translate(1.000000, 1.000000)" fill="#AFB6BB">
            <path d="M24.846875,10.9878782 C24.846875,14.9918045 23.6711055,18.1330491 21.3195313,20.4117063 C19.0335823,22.6252591 15.9109573,23.7320188 11.9515625,23.7320188 C8.2109188,23.7320188 5.27422941,22.68765 3.14140625,20.5988808 C1.00858309,18.5101117 -0.0578125,15.6048673 -0.0578125,11.8830605 C-0.0578125,6.66385039 1.94919868,3.05060527 5.96328125,1.04321677 C7.78985288,0.131753875 10.0374867,-0.323970734 12.70625,-0.323970734 C16.5234566,-0.323970734 19.4929581,0.668857879 21.6148438,2.65454489 C23.769542,4.67278415 24.846875,7.45053415 24.846875,10.9878782 Z M19.79375,11.8342324 C19.79375,8.68751527 19.156647,6.18916786 17.8824219,4.3391152 C16.6081968,2.48906255 14.7406373,1.5640501 12.2796875,1.5640501 C9.03123376,1.5640501 6.8765678,3.01260332 5.815625,5.90975322 C5.26874727,7.3963058 4.9953125,9.06187074 4.9953125,10.906498 C4.9953125,14.2593794 5.61874377,16.9069223 6.865625,18.8492063 C8.15625645,20.8565949 10.0867059,21.8602741 12.6570312,21.8602741 C15.7742343,21.8602741 17.8687446,20.3357667 18.940625,17.2867063 C19.5093778,15.6699448 19.79375,13.8524716 19.79375,11.8342324 Z M58.8078125,22.9507688 L58.64375,23.1135293 C57.5609321,23.0484248 55.8765739,23.015873 53.590625,23.015873 C51.2499883,23.015873 49.5656301,23.0484248 48.5375,23.1135293 L48.3898437,22.9670449 L48.3898437,21.8602741 L48.5539062,21.6975136 C49.6695368,21.6324091 50.3093742,21.5781562 50.4734375,21.5347532 C50.7906266,21.4479472 50.9765622,21.2472114 51.03125,20.9325397 C51.1734382,20.1512858 51.2445313,18.469445 51.2445313,15.8869668 L51.2445313,4.8843626 L47.5859375,12.3225136 C47.378124,12.7348421 46.6671936,14.2539241 45.453125,16.8798053 L42.4507812,23.390222 L41.3515625,23.390222 C40.7828097,22.0447291 40.0117236,20.3466124 39.0382812,18.2958209 L36.7414063,13.4618366 L32.4429688,4.59139385 L32.4429688,15.8869668 C32.4429688,18.469445 32.5140618,20.1512858 32.65625,20.9325397 C32.7109378,21.2472114 32.8968734,21.4479472 33.2140625,21.5347532 C33.3781258,21.5781562 34.0179632,21.6324091 35.1335938,21.6975136 L35.2976563,21.8602741 L35.2976563,22.9670449 L35.1335938,23.1135293 C33.875775,23.0484248 32.7054742,23.015873 31.6226562,23.015873 C30.3648375,23.015873 29.1015688,23.0484248 27.8328125,23.1135293 L27.66875,22.9670449 L27.66875,21.8602741 L27.8328125,21.6975136 C28.9484431,21.6324091 29.5882804,21.5781562 29.7523437,21.5347532 C30.0695328,21.4479472 30.2554685,21.2472114 30.3101562,20.9325397 C30.4523445,20.1512858 30.5234375,18.469445 30.5234375,15.8869668 L30.5234375,7.27694072 C30.5234375,4.69446253 30.4523445,3.01262171 30.3101562,2.23136781 C30.2554685,1.9166961 30.0695328,1.71596026 29.7523437,1.62915427 C29.5882804,1.58575127 28.9484431,1.53149834 27.8328125,1.46639385 L27.66875,1.30363343 L27.66875,0.196862599 L27.8328125,0.0503782242 C28.9703182,0.115482716 30.4085851,0.148034474 32.1476563,0.148034474 C33.4820379,0.148034474 34.64687,0.115482716 35.6421875,0.0503782242 C36.0031268,0.875035125 36.5171842,2.03604782 37.184375,3.53345114 L38.234375,5.77954489 L43.4515625,16.6031126 L45.9617188,11.5575397 L49.8828125,3.24048239 C50.3421898,2.25306426 50.7906228,1.18970684 51.228125,0.0503782242 C52.4640687,0.115482716 53.2953104,0.148034474 53.721875,0.148034474 C55.8656357,0.148034474 57.5062443,0.115482716 58.64375,0.0503782242 L58.8078125,0.196862599 L58.8078125,1.31990947 L58.64375,1.46639385 C57.5281194,1.53149834 56.8882821,1.58575127 56.7242188,1.62915427 C56.4070297,1.71596026 56.221094,1.9166961 56.1664063,2.23136781 C56.024218,3.01262171 55.953125,4.69446253 55.953125,7.27694072 L55.953125,15.8869668 C55.953125,18.469445 56.024218,20.1512858 56.1664063,20.9325397 C56.221094,21.2472114 56.4070297,21.4479472 56.7242188,21.5347532 C56.8882821,21.5781562 57.5281194,21.6324091 58.64375,21.6975136 L58.8078125,21.8602741 L58.8078125,22.9507688 Z" sketch:type="MSShapeGroup"></path>
            <path d="M16.546875,49.9348958 L16.3992187,50.0976562 C15.3054633,50.0325518 13.6156364,50 11.3296875,50 C9.05467613,50 7.37031797,50.0325518 6.2765625,50.0976562 L6.12890625,49.9348958 L6.12890625,48.844401 L6.29296875,48.6816406 C7.40859933,48.6165361 8.04843668,48.5622832 8.2125,48.5188802 C8.52968909,48.4320742 8.71562473,48.2313384 8.7703125,47.9166667 C8.91250071,47.1354128 8.98359375,45.4535719 8.98359375,42.8710938 L8.98359375,34.2610677 C8.98359375,31.6785895 8.91250071,29.9967487 8.7703125,29.2154948 C8.71562473,28.9008231 8.52968909,28.7000872 8.2125,28.6132812 C8.04843668,28.5698783 7.40859933,28.5156253 6.29296875,28.4505208 L6.12890625,28.2877604 L6.12890625,27.1809896 L6.29296875,27.0345052 C7.342974,27.0996097 9.02733216,27.1321615 11.3460938,27.1321615 C13.6539178,27.1321615 15.3328073,27.0996097 16.3828125,27.0345052 L16.546875,27.1809896 L16.546875,28.2877604 L16.3828125,28.4505208 C15.2671819,28.5156253 14.6273446,28.5698783 14.4632812,28.6132812 C14.1460922,28.7000872 13.9601565,28.9008231 13.9054688,29.2154948 C13.7632805,29.9967487 13.6921875,31.6785895 13.6921875,34.2610677 L13.6921875,42.8710938 C13.6921875,45.4535719 13.7632805,47.1354128 13.9054688,47.9166667 C13.9601565,48.2313384 14.1460922,48.4320742 14.4632812,48.5188802 C14.6273446,48.5622832 15.2671819,48.6165361 16.3828125,48.6816406 L16.546875,48.844401 L16.546875,49.9348958 Z M58.0545312,49.9348958 L57.8904687,50.0976562 C56.8076508,50.0325518 55.1232927,50 52.8373438,50 C50.496707,50 48.8123489,50.0325518 47.7842188,50.0976562 L47.6365625,49.9511719 L47.6365625,48.844401 L47.800625,48.6816406 C48.9162556,48.6165361 49.5560929,48.5622832 49.7201563,48.5188802 C50.0373453,48.4320742 50.223281,48.2313384 50.2779687,47.9166667 C50.420157,47.1354128 50.49125,45.4535719 50.49125,42.8710938 L50.49125,31.8684896 L46.8326562,39.3066406 C46.6248427,39.7189691 45.9139123,41.2380511 44.6998437,43.8639323 L41.6975,50.374349 L40.5982812,50.374349 C40.0295284,49.0288561 39.2584424,47.3307394 38.285,45.2799479 L35.988125,40.4459635 L31.6896875,31.5755208 L31.6896875,42.8710938 C31.6896875,45.4535719 31.7607805,47.1354128 31.9029687,47.9166667 C31.9576565,48.2313384 32.1435922,48.4320742 32.4607812,48.5188802 C32.6248446,48.5622832 33.2646819,48.6165361 34.3803125,48.6816406 L34.544375,48.844401 L34.544375,49.9511719 L34.3803125,50.0976562 C33.1224937,50.0325518 31.9521929,50 30.869375,50 C29.6115562,50 28.3482876,50.0325518 27.0795312,50.0976562 L26.9154687,49.9511719 L26.9154687,48.844401 L27.0795312,48.6816406 C28.1951618,48.6165361 28.8349992,48.5622832 28.9990625,48.5188802 C29.3162516,48.4320742 29.5021872,48.2313384 29.556875,47.9166667 C29.6990632,47.1354128 29.7701562,45.4535719 29.7701562,42.8710938 L29.7701562,34.2610677 C29.7701562,31.6785895 29.6990632,29.9967487 29.556875,29.2154948 C29.5021872,28.9008231 29.3162516,28.7000872 28.9990625,28.6132812 C28.8349992,28.5698783 28.1951618,28.5156253 27.0795312,28.4505208 L26.9154687,28.2877604 L26.9154687,27.1809896 L27.0795312,27.0345052 C28.2170369,27.0996097 29.6553038,27.1321615 31.394375,27.1321615 C32.7287567,27.1321615 33.8935888,27.0996097 34.8889062,27.0345052 C35.2498456,27.8591621 35.7639029,29.0201748 36.4310938,30.5175781 L37.4810937,32.7636719 L42.6982813,43.5872396 L45.2084375,38.5416667 L49.1295312,30.2246094 C49.5889085,29.2371912 50.0373416,28.1738338 50.4748437,27.0345052 C51.7107874,27.0996097 52.5420291,27.1321615 52.9685937,27.1321615 C55.1123545,27.1321615 56.7529631,27.0996097 57.8904687,27.0345052 L58.0545312,27.1809896 L58.0545312,28.3040365 L57.8904687,28.4505208 C56.7748382,28.5156253 56.1350008,28.5698783 55.9709375,28.6132812 C55.6537484,28.7000872 55.4678128,28.9008231 55.413125,29.2154948 C55.2709368,29.9967487 55.1998437,31.6785895 55.1998437,34.2610677 L55.1998437,42.8710938 C55.1998437,45.4535719 55.2709368,47.1354128 55.413125,47.9166667 C55.4678128,48.2313384 55.6537484,48.4320742 55.9709375,48.5188802 C56.1350008,48.5622832 56.7748382,48.6165361 57.8904687,48.6816406 L58.0545312,48.844401 L58.0545312,49.9348958 Z" id="IM" sketch:type="MSShapeGroup"></path>
        </g>
    </g>
</svg>