<?xml version="1.0" encoding="UTF-8" standalone="no"?>
<svg width="60px" height="56px" viewBox="0 0 60 56" version="1.1" xmlns="http://www.w3.org/2000/svg" xmlns:xlink="http://www.w3.org/1999/xlink" xmlns:sketch="http://www.bohemiancoding.com/sketch/ns">
    <title>scout-logo-gray</title>
    <description>Created with Sketch (http://www.bohemiancoding.com/sketch)</description>
    <defs></defs>
    <g id="Page-1" stroke="none" stroke-width="1" fill="none" fill-rule="evenodd" sketch:type="MSPage">
        <g id="Scout" sketch:type="MSLayerGroup" transform="translate(3.000000, 3.000000)">
            <polygon id="Polygon-9" stroke="#AFB6BB" stroke-width="4" sketch:type="MSShapeGroup" points="27 0 53.7484645 19.1939724 43.5314602 50.2504721 10.4685398 50.2504721 0.251535479 19.1939724 "></polygon>
            <path d="M37.4337158,37.9730903 C36.5306351,39.3533055 35.2089931,40.4340239 33.46875,41.2152778 C31.7285069,41.9965317 29.6652951,42.3871528 27.2790527,42.3871528 C24.4181986,42.3871528 22.0583589,41.8533039 20.1994629,40.7855903 C18.8810969,40.0173573 17.8099406,38.9919769 16.9859619,37.7094184 C16.1619832,36.4268599 15.75,35.1801276 15.75,33.969184 C15.75,33.2660555 15.9971899,32.663848 16.4915771,32.1625434 C16.9859644,31.6612388 17.6154747,31.4105903 18.380127,31.4105903 C18.999759,31.4105903 19.5238016,31.6059008 19.9522705,31.9965278 C20.3807394,32.3871547 20.7465805,32.966576 21.0498047,33.734809 C21.4189472,34.6462719 21.8177469,35.4079831 22.2462158,36.0199653 C22.6746848,36.6319475 23.2778281,37.1364998 24.0556641,37.5336372 C24.8335,37.9307746 25.8552183,38.1293403 27.1208496,38.1293403 C28.8610927,38.1293403 30.275019,37.7289537 31.3626709,36.9281684 C32.4503228,36.1273831 32.9941406,35.1280442 32.9941406,33.9301215 C32.9941406,32.9795959 32.7008086,32.2081193 32.1141357,31.6156684 C31.5274629,31.0232175 30.7694138,30.5707481 29.8399658,30.2582465 C28.9105178,29.945745 27.6679765,29.613717 26.1123047,29.2621528 C24.0292865,28.7803795 22.2857736,28.2172341 20.8817139,27.5726997 C19.4776541,26.9281652 18.3636516,26.0492677 17.5396729,24.9359809 C16.7156941,23.8226941 16.3037109,22.4392444 16.3037109,20.7855903 C16.3037109,19.2100616 16.7387652,17.810336 17.6088867,16.5863715 C18.4790083,15.3624071 19.7380289,14.4216613 21.3859863,13.7641059 C23.0339438,13.1065505 24.9719127,12.7777778 27.1999512,12.7777778 C28.9797452,12.7777778 30.5189144,12.9958746 31.8175049,13.4320747 C33.1160954,13.8682748 34.1938434,14.447696 35.0507812,15.1703559 C35.9077191,15.8930158 36.5339336,16.6514717 36.9294434,17.4457465 C37.3249531,18.2400213 37.5227051,19.0147532 37.5227051,19.7699653 C37.5227051,20.4600729 37.2755152,21.0818115 36.7811279,21.6351997 C36.2867407,22.1885878 35.6704138,22.4652778 34.9321289,22.4652778 C34.2597623,22.4652778 33.7489031,22.2992638 33.3995361,21.9672309 C33.0501692,21.635198 32.6711446,21.0915836 32.2624512,20.3363715 C31.7351048,19.255637 31.1022986,18.4125464 30.3640137,17.8070747 C29.6257287,17.2016029 28.4392172,16.8988715 26.8044434,16.8988715 C25.2883225,16.8988715 24.0655564,17.2276443 23.1361084,17.8851997 C22.2066604,18.542755 21.7419434,19.3337627 21.7419434,20.2582465 C21.7419434,20.8311661 21.9001449,21.3259528 22.2165527,21.7426215 C22.5329606,22.1592903 22.9680148,22.5173596 23.5217285,22.8168403 C24.0754422,23.1163209 24.6357394,23.3506936 25.2026367,23.5199653 C25.7695341,23.689237 26.7055599,23.9366303 28.0107422,24.2621528 C29.645516,24.6397588 31.1253596,25.0564213 32.4503174,25.5121528 C33.7752752,25.9678842 34.9024612,26.5212641 35.8319092,27.172309 C36.7613572,27.8233539 37.4864476,28.6469134 38.0072021,29.6430122 C38.5279567,30.6391109 38.7883301,31.8598018 38.7883301,33.3051215 C38.7883301,35.036901 38.3367965,36.592875 37.4337158,37.9730903 Z" id="S" fill="#AFB6BB" sketch:type="MSShapeGroup"></path>
        </g>
    </g>
</svg>