<?xml version="1.0" encoding="UTF-8" standalone="no"?>
<svg width="45px" height="51px" viewBox="0 0 45 51" version="1.1" xmlns="http://www.w3.org/2000/svg" xmlns:xlink="http://www.w3.org/1999/xlink" xmlns:sketch="http://www.bohemiancoding.com/sketch/ns">
    <title>ucsc-logo-gray</title>
    <description>Created with Sketch (http://www.bohemiancoding.com/sketch)</description>
    <defs></defs>
    <g id="Page-1" stroke="none" stroke-width="1" fill="none" fill-rule="evenodd" sketch:type="MSPage">
        <g id="UC-+-SC" sketch:type="MSLayerGroup" transform="translate(1.000000, 1.000000)" fill="#AFB6BB">
            <path d="M9.90631579,23.1484375 C13.111595,23.1484375 15.5431496,22.3226645 17.2010526,20.6710938 C18.8589557,19.019523 19.6878947,16.290644 19.6878947,12.484375 C19.6878947,11.0624929 19.7044735,9.71172515 19.7376316,8.43203125 C19.7707896,7.15233735 19.8094735,5.98203655 19.8536842,4.92109375 C19.897895,3.86015095 19.942105,2.92500405 19.9863158,2.115625 C20.0305265,1.30624595 20.0747366,0.660939906 20.1189474,0.1796875 C19.8315775,0.223437719 19.5552645,0.261718586 19.29,0.29453125 C19.0247355,0.327343914 18.7484225,0.34375 18.4610526,0.34375 C18.2178935,0.34375 17.952633,0.327343914 17.6652632,0.29453125 C17.3778933,0.261718586 17.0794752,0.223437719 16.77,0.1796875 C16.8584215,1.68907005 16.9247366,3.19296126 16.9689474,4.69140625 C17.0131581,6.18985124 17.0352632,7.69374245 17.0352632,9.203125 C17.0352632,10.7343827 16.9910531,12.2054617 16.9026316,13.6164062 C16.8142101,15.0273508 16.5765809,16.279682 16.1897368,17.3734375 C15.8028928,18.467193 15.233688,19.3421842 14.4821053,19.9984375 C13.7305226,20.6546908 12.6915856,20.9828125 11.3652632,20.9828125 C10.2820998,20.9828125 9.33158304,20.8734386 8.51368421,20.6546875 C7.69578538,20.4359364 7.00500282,19.9929721 6.44131579,19.3257813 C5.87762876,18.6585904 5.4521067,17.7125061 5.16473684,16.4875 C4.87736698,15.2624939 4.73368421,13.6546975 4.73368421,11.6640625 C4.73368421,9.78280309 4.75578925,7.92891538 4.8,6.10234375 C4.84421075,4.27577212 4.976841,2.30157311 5.19789474,0.1796875 C4.75578726,0.223437719 4.3026339,0.261718586 3.83842105,0.29453125 C3.37420821,0.327343914 2.92105484,0.34375 2.47894737,0.34375 C2.03683989,0.34375 1.58368653,0.327343914 1.11947368,0.29453125 C0.655260837,0.261718586 0.202107474,0.223437719 -0.24,0.1796875 C-0.195789253,0.726565234 -0.162631689,1.54686953 -0.140526316,2.640625 C-0.118420942,3.73438047 -0.107368421,5.16717864 -0.107368421,6.9390625 C-0.107368421,7.52969045 -0.112894682,8.09843477 -0.123947368,8.6453125 C-0.135000055,9.19219023 -0.140526316,9.76093455 -0.140526316,10.3515625 C-0.140526316,10.9421905 -0.146052576,11.5820278 -0.157105263,12.2710937 C-0.16815795,12.9601597 -0.173684211,13.7421831 -0.173684211,14.6171875 C-0.173684211,16.1703203 0.0860500342,17.4882758 0.605526316,18.5710938 C1.1250026,19.6539117 1.83789021,20.5398403 2.74421053,21.2289063 C3.65053085,21.9179722 4.71709913,22.4101548 5.94394737,22.7054687 C7.17079561,23.0007827 8.49157187,23.1484375 9.90631579,23.1484375 Z M43.5284211,19.0140625 L43.0973684,18.7515625 C42.7436824,19.1234394 42.3292129,19.4624985 41.8539474,19.76875 C41.3786818,20.0750015 40.8757921,20.3320302 40.3452632,20.5398437 C39.8147342,20.7476573 39.2731607,20.9117181 38.7205263,21.0320312 C38.167892,21.1523444 37.6263184,21.2125 37.0957895,21.2125 C36.1452584,21.2125 35.2002679,21.0375018 34.2607895,20.6875 C33.3213111,20.3374982 32.4813195,19.78516 31.7407895,19.0304687 C31.0002595,18.2757775 30.3978971,17.3023497 29.9336842,16.1101562 C29.4694714,14.9179628 29.2373684,13.4796959 29.2373684,11.7953125 C29.2373684,10.0453037 29.4639451,8.54141254 29.9171053,7.28359375 C30.3702654,6.02577496 30.9615753,4.99219155 31.6910526,4.1828125 C32.42053,3.37343345 33.2328903,2.77187697 34.1281579,2.378125 C35.0234255,1.98437303 35.9131535,1.7875 36.7973684,1.7875 C37.9910586,1.7875 39.0299956,2.01171651 39.9142105,2.46015625 C40.7984255,2.90859599 41.6605221,3.65780725 42.5005263,4.7078125 L42.9647368,4.7078125 C43.0089476,4.13905966 43.0918415,3.57578404 43.2134211,3.01796875 C43.3350006,2.46015346 43.5063147,1.90781523 43.7273684,1.3609375 C43.3515771,1.14218641 42.8928974,0.934375984 42.3513158,0.7375 C41.8097341,0.540624016 41.2405293,0.371094461 40.6436842,0.22890625 C40.0468391,0.0867180391 39.4278979,-0.0281245625 38.7868421,-0.115625 C38.1457863,-0.203125437 37.5378976,-0.246875 36.9631579,-0.246875 C35.2168334,-0.246875 33.5479027,-0.0171897969 31.9563158,0.4421875 C30.3647289,0.901564797 28.966585,1.62890127 27.7618421,2.62421875 C26.5570992,3.61953623 25.5955299,4.91014832 24.8771053,6.49609375 C24.1586806,8.08203918 23.7994737,10.0124886 23.7994737,12.2875 C23.7994737,13.8406328 24.0757867,15.2843683 24.6284211,16.61875 C25.1810554,17.9531317 25.9823632,19.1070264 27.0323684,20.0804687 C28.0823737,21.0539111 29.3644661,21.8085911 30.8786842,22.3445312 C32.3929023,22.8804714 34.1115693,23.1484375 36.0347368,23.1484375 C38.7536978,23.1484375 41.0084121,22.7000045 42.7989474,21.803125 C42.8431581,21.3437477 42.9315783,20.8789086 43.0642105,20.4085937 C43.1968428,19.9382789 43.3515781,19.4734398 43.5284211,19.0140625 Z" id="UC" sketch:type="MSShapeGroup"></path>
            <path d="M14.3115789,31.171875 L14.8089474,31.171875 C15.0300011,30.4499964 15.2123677,29.8539086 15.3560526,29.3835937 C15.4997376,28.9132789 15.6710516,28.426565 15.87,27.9234375 C15.2289442,27.42031 14.460794,27.0265639 13.5655263,26.7421875 C12.6702587,26.4578111 11.6257954,26.315625 10.4321053,26.315625 C9.43736345,26.315625 8.4923729,26.4687485 7.59710526,26.775 C6.70183763,27.0812515 5.91158237,27.5296845 5.22631579,28.1203125 C4.54104921,28.7109405 3.99394941,29.4437456 3.585,30.31875 C3.17605059,31.1937544 2.97157895,32.1999943 2.97157895,33.3375 C2.97157895,34.5843812 3.21473441,35.6070273 3.70105263,36.4054687 C4.18737085,37.2039102 4.79525951,37.8765598 5.52473684,38.4234375 C6.25421417,38.9703152 7.04999569,39.4351543 7.91210526,39.8179687 C8.77421484,40.2007832 9.56999635,40.5945292 10.2994737,40.9992187 C11.028951,41.4039083 11.6368397,41.8687474 12.1231579,42.39375 C12.6094761,42.9187526 12.8526316,43.5968708 12.8526316,44.428125 C12.8526316,45.3468796 12.5376347,46.1343717 11.9076316,46.790625 C11.2776284,47.4468783 10.2994803,47.775 8.97315789,47.775 C8.30999668,47.775 7.71316055,47.6820322 7.18263158,47.4960938 C6.65210261,47.3101553 6.19894925,47.0531266 5.82315789,46.725 C5.44736654,46.3968734 5.13789595,46.0195334 4.89473684,45.5929687 C4.65157773,45.1664041 4.48578992,44.7125024 4.39736842,44.23125 L3.76736842,44.23125 C3.65684155,44.9750037 3.5242113,45.6640593 3.36947368,46.2984375 C3.21473607,46.9328157 3.02684321,47.6328087 2.80578947,48.3984375 C3.29210769,48.7703144 4.0049953,49.08203 4.94447368,49.3335937 C5.88395207,49.5851575 6.95052035,49.7109375 8.14421053,49.7109375 C9.47053295,49.7109375 10.6697315,49.5414079 11.7418421,49.2023437 C12.8139527,48.8632796 13.7368382,48.371097 14.5105263,47.7257812 C15.2842144,47.0804655 15.8810505,46.3039108 16.3010526,45.3960937 C16.7210547,44.4882767 16.9310526,43.4875055 16.9310526,42.39375 C16.9310526,41.1468688 16.6823709,40.1242227 16.185,39.3257812 C15.6876291,38.5273398 15.0631617,37.8492215 14.3115789,37.2914063 C13.5599962,36.733591 12.7531622,36.2632832 11.8910526,35.8804688 C11.0289431,35.4976543 10.222109,35.0984396 9.47052632,34.6828125 C8.71894361,34.2671854 8.09447617,33.8023463 7.59710526,33.2882812 C7.09973436,32.7742162 6.85105263,32.112504 6.85105263,31.303125 C6.85105263,30.5156211 7.17157574,29.8265655 7.81263158,29.2359375 C8.45368742,28.6453095 9.28262649,28.35 10.2994737,28.35 C12.2668519,28.35 13.604207,29.2906156 14.3115789,31.171875 Z M43.7842105,45.5765625 L43.3531579,45.3140625 C42.9994719,45.6859394 42.5850024,46.0249985 42.1097368,46.33125 C41.6344713,46.6375015 41.1315816,46.8945302 40.6010526,47.1023437 C40.0705237,47.3101573 39.5289501,47.4742181 38.9763158,47.5945312 C38.4236814,47.7148444 37.8821079,47.775 37.3515789,47.775 C36.4010479,47.775 35.4560573,47.6000018 34.5165789,47.25 C33.5771006,46.8999982 32.737109,46.34766 31.9965789,45.5929687 C31.2560489,44.8382775 30.6536865,43.8648497 30.1894737,42.6726562 C29.7252608,41.4804628 29.4931579,40.0421959 29.4931579,38.3578125 C29.4931579,36.6078037 29.7197346,35.1039125 30.1728947,33.8460937 C30.6260549,32.588275 31.2173648,31.5546915 31.9468421,30.7453125 C32.6763194,29.9359335 33.4886797,29.334377 34.3839474,28.940625 C35.279215,28.546873 36.1689429,28.35 37.0531579,28.35 C38.2468481,28.35 39.2857851,28.5742165 40.17,29.0226563 C41.0542149,29.471096 41.9163116,30.2203073 42.7563158,31.2703125 L43.2205263,31.2703125 C43.2647371,30.7015597 43.347631,30.138284 43.4692105,29.5804688 C43.5907901,29.0226535 43.7621042,28.4703152 43.9831579,27.9234375 C43.6073665,27.7046864 43.1486869,27.496876 42.6071053,27.3 C42.0655236,27.103124 41.4963188,26.9335945 40.8994737,26.7914063 C40.3026286,26.649218 39.6836874,26.5343754 39.0426316,26.446875 C38.4015757,26.3593746 37.7936871,26.315625 37.2189474,26.315625 C35.4726228,26.315625 33.8036922,26.5453102 32.2121053,27.0046875 C30.6205184,27.4640648 29.2223744,28.1914013 28.0176316,29.1867187 C26.8128887,30.1820362 25.8513194,31.4726483 25.1328947,33.0585938 C24.4144701,34.6445392 24.0552632,36.5749886 24.0552632,38.85 C24.0552632,40.4031328 24.3315762,41.8468683 24.8842105,43.18125 C25.4368449,44.5156317 26.2381526,45.6695264 27.2881579,46.6429687 C28.3381631,47.6164111 29.6202556,48.3710911 31.1344737,48.9070313 C32.6486918,49.4429714 34.3673588,49.7109375 36.2905263,49.7109375 C39.0094873,49.7109375 41.2642016,49.2625045 43.0547368,48.365625 C43.0989476,47.9062477 43.1873678,47.4414086 43.32,46.9710937 C43.4526322,46.5007789 43.6073675,46.0359398 43.7842105,45.5765625 Z" id="SC" sketch:type="MSShapeGroup"></path>
        </g>
    </g>
</svg>