<svg xmlns="http://www.w3.org/2000/svg" xmlns:xlink="http://www.w3.org/1999/xlink" version="1.1" id="Your_Icon" x="0px" y="0px" width="100px" height="100px" viewBox="0 0 100 100" enable-background="new 0 0 100 100" xml:space="preserve">
<circle fill="#000000" cx="87" cy="53.5" r="7.5"/>
<path fill="#000000" d="M91,63c0,0-9.041,0-10.5,0l-5.466-5.466l-6.327-28.887C67.641,24.275,63.689,21,59,21H47  c-4.967,0-9.107,3.675-9.864,8.438l-2.406,11.505l-1.973-8.103C31.762,28.37,27.758,25,23,25H11C5.5,25,1,29.5,1,35v21  c0,4.079,2.478,7.603,6,9.154V92c0,4.4,3.6,8,8,8h4c4.4,0,8-3.6,8-8V48.5l2.886,12.626c0.571,2.5,2.656,3.929,5.115,3.929  c2.5,0,4.489-1.441,5.004-3.953L43,46.5V92c0,4.4,3.6,8,8,8h4c4.4,0,8-3.6,8-8V45.5l2.855,13.21  c0.452,2.153,2.101,3.746,2.656,4.302L79,73.5V93c0,3.85,3.15,7,7,7h2c3.85,0,7-3.15,7-7v-8.088c2.385-1.389,4-3.968,4-6.912v-7  C99,66.6,95.4,63,91,63z"/>
<circle fill="#000000" cx="17" cy="13" r="9"/>
<circle fill="#000000" cx="53" cy="9" r="9"/>
</svg>