<?xml version="1.0" encoding="UTF-8" standalone="no"?>
<svg width="53px" height="50px" viewBox="0 0 53 50" version="1.1" xmlns="http://www.w3.org/2000/svg" xmlns:xlink="http://www.w3.org/1999/xlink" xmlns:sketch="http://www.bohemiancoding.com/sketch/ns">
    <title>ensembl-logo-gray</title>
    <description>Created with Sketch (http://www.bohemiancoding.com/sketch)</description>
    <defs></defs>
    <g id="Page-1" stroke="none" stroke-width="1" fill="none" fill-rule="evenodd" sketch:type="MSPage">
        <g id="Ensembl-gray" sketch:type="MSLayerGroup" fill="#AFB6BB">
            <g id="!" transform="translate(32.165517, 0.000000)" sketch:type="MSShapeGroup">
                <path d="M5.48275862,49.1562729 C8.51080274,49.1562729 10.9655172,46.6926895 10.9655172,43.6537051 C10.9655172,40.6147206 8.51080274,38.1511372 5.48275862,38.1511372 C2.4547145,38.1511372 0,40.6147206 0,43.6537051 C0,46.6926895 2.4547145,49.1562729 5.48275862,49.1562729 Z" id="Oval-1"></path>
                <path d="M7.36638605,34.8445811 L8.6801391,34.8445811 C8.6801391,34.8445811 15.0604529,18.1817596 17.3991918,14.4936778 C19.737931,10.805596 22.8735621,2.0493126 17.7943359,0.428634274 C12.7151098,-1.19204392 10.7377829,7.39622535 10.1513133,13.3473095 C9.56484377,19.2983936 8.10473801,31.4833931 7.36638605,34.8445811 Z" id="Path-1"></path>
            </g>
            <path d="M32.1476219,35.9850385 C32.1476219,35.9850385 23.8918939,39.4085599 19.8472885,39.6466105 C15.8026832,39.884661 10.3433045,39.5547219 9.59781385,35.6640553 C8.85232287,31.7733888 10.5089299,29.9442155 10.5089299,29.9442155 C20.1276732,29.3052943 23.3955549,29.0126121 28.0651806,27.368111 C32.7348062,25.7236099 37.9732301,22.2298726 37.9732314,17.692941 C37.9732328,13.1560093 29.8079911,12.3687766 24.8768994,13.160129 C19.9458076,13.9514812 11.2635233,16.833523 6.45308055,21.4666421 C1.64263764,26.0997611 -1.23991525,33.0754131 0.601770608,39.5866053 C2.44345636,46.0977975 9.94704517,46.5821385 14.3959417,45.9580838 C18.8448382,45.3340289 28.933282,40.606335 31.0537473,38.9833289 C31.5738241,37.4851689 32.1476219,35.9850385 32.1476219,35.9850385 Z M12.1026307,26.8100956 C13.1165592,23.2945777 23.8658359,17.0968295 28.7751352,17.9242105 C33.6844346,18.7515915 21.2023021,27.2764528 12.1026307,26.8100956 Z" id="Path-2" sketch:type="MSShapeGroup"></path>
        </g>
    </g>
</svg>