<?xml version="1.0" encoding="UTF-8" standalone="no"?>
<svg width="25px" height="24px" viewBox="0 0 25 24" version="1.1" xmlns="http://www.w3.org/2000/svg" xmlns:xlink="http://www.w3.org/1999/xlink" xmlns:sketch="http://www.bohemiancoding.com/sketch/ns">
    <title>icon-child-boy</title>
    <description>Created with Sketch (http://www.bohemiancoding.com/sketch)</description>
    <defs></defs>
    <g id="Page-1" stroke="none" stroke-width="1" fill="none" fill-rule="evenodd" sketch:type="MSPage">
        <path d="M17.0256895,13.22935 C17.3992169,12.63988 17.6075905,12.10711 17.7157444,11.71378 C18.1577554,11.42671 18.6227334,10.86727 18.8958323,9.78724 C19.054096,9.16144 19.1726895,8.36974 18.6837004,7.80421 C19.0866675,3.79552 16.3185136,1.79107 14.6930741,1.26922 C14.034129,1.0861 13.4445026,1 12.8955905,1 C12.7667664,1 12.6452499,1.00483 12.528118,1.01344 C12.4086895,1.00399 12.2865466,1 12.1633598,1 C11.6131949,1 11.0241949,1.0861 10.411184,1.25557 C9.90068945,1.4179 9.34259055,1.69342 8.79221692,2.09599 C7.96937077,1.21042 6.84210703,1.74739 6.84210703,1.74739 C8.13201912,2.26252 8.0255356,2.73628 8.01530484,2.77198 C6.97093121,3.84697 6.15873341,5.47741 6.4105356,7.76368 C5.88542571,8.36974 6.00485429,9.16144 6.16290923,9.78724 C6.43642571,10.86727 6.89952462,11.42713 7.34320593,11.71378 C7.45992022,12.13924 7.70232681,12.72829 8.13515099,13.37425 C5.9522389,14.56285 2.39297517,17.04505 3.08866747,20.33176 L3.10169398,20.3928374 C3.12551862,20.5045439 3.22470229,20.6238044 3.33871421,20.664779 L3.39726088,20.68582 C3.54257956,20.73706 7.01101912,21.95527 12.3193268,21.95527 C15.4436785,21.95527 18.584107,21.53569 21.6516675,20.70955 L21.7411166,20.6855632 C21.8478479,20.6569421 21.9538593,20.5427764 21.9764756,20.4372136 L21.9959642,20.34625 C22.7075246,17.04253 19.1173598,14.54962 16.9331949,13.3648 C16.9674367,13.31482 17.002096,13.26631 17.0256895,13.22935 Z M7.24778835,9.55519 C7.13190923,9.09865 7.12334879,8.81683 7.16364549,8.63686 L7.63488725,9.08017 L8.09297517,10.51405 C8.09297517,10.51405 7.78500813,6.48751 9.94098615,6.17797 C9.94098615,6.17797 12.2305905,8.5537 15.0737004,9.06883 C15.0737004,9.06883 14.4579752,7.93315 13.9445576,6.90079 C13.9445576,6.90079 15.587118,8.75929 17.0246455,9.06883 C17.0246455,9.06883 17.2292609,8.80549 17.4639422,8.36869 C17.4956785,8.3584 17.5397334,8.34685 17.5965246,8.34685 C17.7992609,8.34685 18.0757004,8.51338 17.8109532,9.55519 C17.4720851,10.89646 16.8937334,10.97878 16.7576015,10.97878 C16.7388103,10.97878 16.728162,10.97668 16.728162,10.97668 C16.728162,10.97668 16.7028982,11.33179 16.4984916,11.86267 C16.2114037,12.65353 15.5829422,13.78879 14.2262169,14.48326 C13.8975796,14.66323 13.5668543,14.79091 13.2357114,14.86672 C13.2258982,14.86882 13.2173378,14.87239 13.2079422,14.87533 L13.207107,14.87365 C12.9431949,14.93098 12.6776125,14.95765 12.4130741,14.94904 C11.1663818,14.90095 10.1817224,14.11933 9.69273341,13.64683 C9.69189824,13.63906 9.69127187,13.62961 9.69127187,13.62142 C8.40595319,12.25348 8.3297444,10.97668 8.3297444,10.97668 C8.3297444,10.97668 8.31951363,10.97878 8.30009604,10.97878 C8.16396418,10.97878 7.58665648,10.89625 7.24778835,9.55519 L7.24778835,9.55519 Z M21.1077664,19.85716 C18.2155905,20.61022 15.2599422,20.99158 12.3195356,20.99158 C7.9305356,20.99158 4.87195319,20.14507 3.98083231,19.86493 C3.66722791,17.27143 6.83500813,15.16786 8.72895319,14.15188 C9.2035356,14.64076 11.019184,16.29493 13.4530631,15.80143 C13.535118,15.78379 13.6148763,15.76363 13.6948433,15.742 C13.7675026,15.7231 13.8416235,15.70147 13.9147004,15.67837 C14.0545905,15.63322 14.1903048,15.58366 14.3203818,15.52864 C14.4295796,15.48139 14.5394037,15.43435 14.6477664,15.37933 C14.7223048,15.34111 14.7937114,15.30142 14.8655356,15.26005 C14.980162,15.19642 15.093118,15.12712 15.2060741,15.05257 C15.663118,14.74954 16.0318433,14.40934 16.3270741,14.09686 C16.6479862,14.25877 16.9757884,14.44714 17.2348982,14.65105 C17.2365686,14.65273 17.2374037,14.65399 17.2386565,14.65546 C19.0895905,15.7798 21.3716785,17.6362 21.1077664,19.85716 L21.1077664,19.85716 Z" id="son" fill="#96A5A5" sketch:type="MSShapeGroup"></path>
    </g>
</svg>