<?xml version="1.0" encoding="UTF-8" standalone="no"?>
<svg width="25px" height="24px" viewBox="0 0 25 24" version="1.1" xmlns="http://www.w3.org/2000/svg" xmlns:xlink="http://www.w3.org/1999/xlink" xmlns:sketch="http://www.bohemiancoding.com/sketch/ns">
    <title>icon-father</title>
    <description>Created with Sketch (http://www.bohemiancoding.com/sketch)</description>
    <defs></defs>
    <g id="Page-1" stroke="none" stroke-width="1" fill="none" fill-rule="evenodd" sketch:type="MSPage">
        <path d="M18.2102273,15.90811 C17.1836294,15.72058 15.9046603,15.33145 15.4512582,15.07756 C15.4364129,14.86756 15.428784,14.44147 15.4698149,13.74532 C15.4947634,13.71655 15.5201242,13.69198 15.5450727,13.66174 C16.1388871,12.8209 16.4285778,12.04243 16.5592995,11.51638 C16.951052,11.23498 17.3625984,10.68667 17.6046603,9.62596 C17.7448665,9.01108 17.8498149,8.23471 17.416619,7.67863 C17.7731139,3.74428 15.3217737,1.77637 13.8821861,1.26439 C13.2992995,1.08484 12.7762067,1 12.2904335,1 C12.1760005,1 12.068784,1.00504 11.9648665,1.01323 C11.8592995,1.00441 11.7504335,1 11.6419799,1 C11.1547634,1 10.6324953,1.08463 10.0900211,1.25095 C8.60960874,1.77616 6.15888709,3.74428 6.54672214,7.63915 C6.0815675,8.2345 6.1873407,9.01108 6.3273407,9.62575 C6.56960874,10.68646 6.9801242,11.23477 7.37290771,11.51617 C7.50218606,12.03802 7.79125822,12.80641 8.38651595,13.62835 C8.42754688,13.68547 8.45167059,13.7302 8.48795925,13.77724 C8.52651595,14.4442 8.51929946,14.86 8.5015675,15.07945 C8.04610358,15.33124 6.77043348,15.721 5.74548502,15.9079 C4.51538193,16.13155 2.98795925,16.69834 2.08527884,19.1209 C1.93249533,19.53313 1.98651595,19.9798 2.23517575,20.34646 C3.16136131,21.71293 8.04486647,22 11.9778562,22 C15.9108458,22 20.794351,21.71293 21.7205366,20.34625 C21.9691964,19.97959 22.0230108,19.53292 21.8704335,19.12153 C20.9675469,16.69834 19.4405366,16.13155 18.2102273,15.90811 Z M8.24651595,10.79356 C8.24651595,10.79356 8.2372376,10.79503 8.2201242,10.79503 C8.09929946,10.79503 7.58816544,10.71397 7.28816544,9.39748 C7.05455719,8.37436 7.29888709,8.21224 7.4786809,8.21224 C7.5615675,8.21224 7.63043348,8.24689 7.63043348,8.24689 L8.03682523,9.53335 C8.03682523,9.53335 7.76424791,5.92177 9.67352626,5.64394 C9.67352626,5.64394 11.7007428,7.77502 14.2197118,8.23681 C14.2197118,8.23681 13.6741448,7.2181 13.2192995,6.29221 C13.2192995,6.29221 14.674351,7.95898 15.9469283,8.23681 C15.9469283,8.23681 16.1716706,7.94323 16.4071345,7.4701 C16.3846603,7.71895 16.3518768,7.97578 16.3007428,8.24689 C16.3007428,8.24689 16.3704335,8.21224 16.4533201,8.21224 C16.6329077,8.21224 16.8774438,8.37415 16.6430108,9.39748 C16.3434232,10.71418 15.831052,10.79503 15.7104335,10.79503 C15.6939386,10.79503 15.6846603,10.79356 15.6846603,10.79356 C15.6846603,10.79356 15.6201242,12.02794 14.5050727,13.35892 C14.5050727,13.36921 14.5034232,13.38076 14.5034232,13.39084 C13.6355881,14.29027 12.7504335,14.72623 11.8623922,14.69221 C10.7584747,14.64538 9.88630977,13.87846 9.45290771,13.41373 C9.45228915,13.4068 9.45167059,13.39651 9.45167059,13.38958 C8.31393863,12.04684 8.24651595,10.79356 8.24651595,10.79356 L8.24651595,10.79356 Z M11.9778562,20.99515 C7.30404173,20.99515 2.63084585,20.48863 3.00795925,19.47706 C3.76094894,17.45455 4.95991801,17.07109 5.9186809,16.89679 C6.87764997,16.72249 9.20610358,16.12903 9.41084585,15.57106 C9.47352626,15.40327 9.49600049,15.09079 9.50053657,14.73925 C10.0873407,15.1876 10.872083,15.61159 11.8160005,15.65359 C11.8679593,15.65653 11.9197118,15.658 11.9714644,15.658 C12.8240417,15.658 13.6545572,15.33607 14.4545572,14.71384 C14.4582685,15.07567 14.4811551,15.39928 14.5448665,15.57106 C14.7494026,16.12882 17.0778562,16.72228 18.0372376,16.89679 C18.9960005,17.07109 20.1949696,17.45455 20.9479593,19.47706 C21.3250727,20.48863 16.6516706,20.99515 11.9778562,20.99515 L11.9778562,20.99515 Z" id="father" fill="#96A5A5" sketch:type="MSShapeGroup"></path>
    </g>
</svg>