<svg xmlns="http://www.w3.org/2000/svg" xmlns:xlink="http://www.w3.org/1999/xlink" version="1.0" id="Your_Icon" x="0px" y="0px" width="100px" height="100px" viewBox="0 0 100 100" enable-background="new 0 0 100 100" xml:space="preserve">
<path d="M99.109,64.025c-4.678-15.071-15.905-26.642-30.116-32.148l3.994-12.172l-0.006-0.003c0.002-0.007,0.013-0.009,0.014-0.014  c0.084-0.204-0.011-0.432-0.215-0.515c-0.2-0.084-0.425,0.071-0.509,0.276c0,0,0,0-0.004,0.031l-5.742,11.505  c-5.223-1.725-10.803-2.651-16.58-2.651c-22.598,0-42.31,14.191-49.052,35.314c-0.2,0.63,0.11,1.311,0.72,1.57l16.706,7.12  c0.566,0.244,1.223,0.048,1.566-0.462c6.697-9.927,17.934-15.853,30.059-15.853c1.338,0,2.661,0.085,3.971,0.226l-7.721,15.472  c-0.972,2.367,0.154,5.072,2.522,6.045c2.365,0.973,5.074-0.155,6.048-2.523l5.792-17.652c7.989,2.405,14.967,7.49,19.652,14.598  c0.244,0.37,0.651,0.576,1.071,0.576c0.169,0,0.34-0.033,0.504-0.103l16.605-7.078C98.993,65.328,99.305,64.654,99.109,64.025z   M49.945,53.458c-5.133,0-10.112,1.008-14.707,2.867L25.175,37.457c7.313-4.198,15.8-6.556,24.77-6.556  c5.366,0,10.555,0.839,15.421,2.406L55.134,53.809C53.428,53.584,51.697,53.458,49.945,53.458z M81.747,69.89  c-4.995-7.137-12.193-12.263-20.388-14.744l6.833-20.827c13.088,5.114,23.491,15.645,28.111,29.367L81.747,69.89z"/>
</svg>