<?xml version="1.0" encoding="UTF-8" standalone="no"?>
<svg width="27px" height="24px" viewBox="0 0 27 24" version="1.1" xmlns="http://www.w3.org/2000/svg" xmlns:xlink="http://www.w3.org/1999/xlink" xmlns:sketch="http://www.bohemiancoding.com/sketch/ns">
    <title>icon-child-girl</title>
    <description>Created with Sketch (http://www.bohemiancoding.com/sketch)</description>
    <defs></defs>
    <g id="Page-1" stroke="none" stroke-width="1" fill="none" fill-rule="evenodd" sketch:type="MSPage">
        <path d="M17.0258528,13.22914 C17.3989627,12.63967 17.6077539,12.1069 17.715699,11.71357 C18.1579187,11.4265 18.622688,10.86706 18.8959957,9.78703 C19.0542594,9.16123 19.1728528,8.36953 18.683655,7.804 C18.7989077,6.40498 18.5671495,5.28085 18.1397539,4.36336 C18.1529077,4.33585 18.1727429,4.31422 18.1844352,4.28671 C18.6533803,4.92616 19.3511605,5.58451 20.3220396,5.76994 L20.2523033,5.3113 C20.8012154,6.10258 21.9311935,7.7284 21.9483143,7.75297 C22.0203473,5.23885 21.1442594,4.13509 20.8788858,3.85936 C19.6179957,2.72326 18.3798638,2.71549 17.8161275,2.7892 C17.6104682,2.62141 17.3557429,2.51725 17.0751275,2.51725 C16.9859737,2.51725 16.8995341,2.5288 16.8156001,2.5477 C16.1034132,1.88767 15.3150176,1.46809 14.6928198,1.26922 C14.0345012,1.0861 13.444666,1 12.8959627,1 C12.7671385,1 12.645622,1.00483 12.5282814,1.01344 C12.4088528,1.00399 12.2867099,1 12.1635231,1 C11.6133583,1 11.0241495,1.0861 10.4113473,1.25557 C9.74613851,1.46788 8.96003961,1.88473 8.24910555,2.54182 C8.17289676,2.52586 8.09376489,2.51725 8.01317148,2.51725 C7.73276489,2.51725 7.47803961,2.62141 7.27238027,2.7892 C6.70843522,2.71528 5.47051214,2.72326 4.20962203,3.85936 C3.94466599,4.13509 3.06732533,5.23864 3.13852313,7.75507 C3.15731434,7.7284 4.28729236,6.10258 4.83599566,5.3113 L4.76625939,5.76994 C5.73734731,5.58451 6.43512753,4.92616 6.90407258,4.28671 C6.49609456,5.25754 6.25953412,6.39028 6.41069895,7.76347 C5.88538027,8.36953 6.00501763,9.16123 6.16307258,9.78703 C6.43638027,10.86706 6.89947917,11.42692 7.34336928,11.71357 C7.45987478,12.13882 7.70228137,12.72787 8.13531434,13.37383 C5.95219346,14.56243 2.39313851,17.04463 3.08862203,20.33134 L3.10169697,20.3924174 C3.12561017,20.5041239 3.22486563,20.6233844 3.33887756,20.664359 L3.39742423,20.6854 C3.54253412,20.73664 7.01118247,21.95485 12.3194902,21.95485 C15.4440506,21.95485 18.5844792,21.53527 21.6514132,20.70913 L21.7408623,20.6851432 C21.8475937,20.6565221 21.9536711,20.5423564 21.9763641,20.4367936 L21.9959187,20.34583 C22.707688,17.04253 19.1175231,14.54962 16.9331495,13.36459 C16.9676001,13.31461 17.0020506,13.2661 17.0258528,13.22914 Z M7.2479517,9.55519 C7.13207258,9.09865 7.12351214,8.81683 7.16380884,8.63686 L7.6350506,9.08017 L8.09313851,10.51405 C8.09313851,10.51405 7.78517148,6.48751 9.9411495,6.17797 C9.9411495,6.17797 12.2305451,8.5537 15.0738638,9.06883 C15.0738638,9.06883 14.4583473,7.93315 13.9447209,6.90079 C13.9447209,6.90079 15.5874902,8.75929 17.0248088,9.06883 C17.0248088,9.06883 17.229633,8.80549 17.4641055,8.36869 C17.495633,8.3584 17.5394792,8.34685 17.5964792,8.34685 C17.7994242,8.34685 18.075655,8.51338 17.810699,9.55519 C17.4720396,10.89646 16.8934792,10.97878 16.7577649,10.97878 C16.7389737,10.97878 16.7281165,10.97668 16.7281165,10.97668 C16.7281165,10.97668 16.7030616,11.33179 16.498655,11.86267 C16.2115671,12.65353 15.5828968,13.78879 14.2263803,14.48326 C13.8977429,14.66323 13.5668088,14.79091 13.2358748,14.86672 C13.2258528,14.86882 13.2170836,14.87239 13.207688,14.87533 L13.2070616,14.87365 C12.9429407,14.93098 12.6777759,14.95765 12.4128198,14.94904 C11.1663363,14.90095 10.1814682,14.11933 9.69247917,13.64683 C9.6918528,13.63906 9.69122643,13.62961 9.69122643,13.62142 C8.40569895,12.25348 8.32969895,10.97668 8.32969895,10.97668 C8.32969895,10.97668 8.31946818,10.97878 8.3000506,10.97878 C8.16412753,10.97878 7.58661104,10.89625 7.2479517,9.55519 L7.2479517,9.55519 Z M21.1081385,19.85695 C18.2155451,20.61001 15.2601055,20.99137 12.319699,20.99137 C7.93069895,20.99137 4.87211654,20.14486 3.98099566,19.86472 C3.66739126,17.27122 6.83517148,15.16765 8.72890774,14.15167 C9.20369895,14.64055 11.0193473,16.29472 13.4534352,15.80122 C13.5354902,15.78358 13.6150396,15.76342 13.6950066,15.74179 C13.767666,15.72289 13.8415781,15.70126 13.9150726,15.67816 C14.0547539,15.63301 14.1904682,15.58345 14.3207539,15.52843 C14.4299517,15.48118 14.5393583,15.43414 14.6479297,15.37912 C14.722677,15.3409 14.7938748,15.30121 14.8659077,15.25984 C14.9803253,15.19621 15.0932814,15.12691 15.2060286,15.05236 C15.6634902,14.74933 16.0317979,14.40913 16.3274462,14.09665 C16.6483583,14.25856 16.9761605,14.44693 17.2352704,14.65084 C17.2367319,14.65252 17.2375671,14.65378 17.2390286,14.65525 C19.0897539,15.77959 21.3718418,17.63599 21.1081385,19.85695 L21.1081385,19.85695 Z" id="daughter" fill="#96A5A5" sketch:type="MSShapeGroup"></path>
    </g>
</svg>